<?xml version="1.0" encoding="UTF-8" standalone="no"?>
<svg
   viewBox="0 0 512 512"
   version="1.1"
   id="svg293"
   sodipodi:docname="dice-solid.svg"
   width="512"
   height="512"
   inkscape:version="1.2 (dc2aedaf03, 2022-05-15)"
   xmlns:inkscape="http://www.inkscape.org/namespaces/inkscape"
   xmlns:sodipodi="http://sodipodi.sourceforge.net/DTD/sodipodi-0.dtd"
   xmlns="http://www.w3.org/2000/svg"
   xmlns:svg="http://www.w3.org/2000/svg">
  <defs
     id="defs297" />
  <sodipodi:namedview
     id="namedview295"
     pagecolor="#ffffff"
     bordercolor="#000000"
     borderopacity="0.25"
     inkscape:showpageshadow="2"
     inkscape:pageopacity="0.0"
     inkscape:pagecheckerboard="0"
     inkscape:deskcolor="#d1d1d1"
     showgrid="false"
     inkscape:zoom="0.42626953"
     inkscape:cx="17.594502"
     inkscape:cy="631.05613"
     inkscape:window-width="1920"
     inkscape:window-height="1027"
     inkscape:window-x="-8"
     inkscape:window-y="-8"
     inkscape:window-maximized="1"
     inkscape:current-layer="svg293" />
  <!--! Font Awesome Pro 6.4.0 by @fontawesome - https://fontawesome.com License - https://fontawesome.com/license (Commercial License) Copyright 2023 Fonticons, Inc. -->
  <path
     d="m 213.75709,21.633803 c -22.95433,-28.8450706 -60.20406,-28.8450706 -83.15839,0 L 17.215747,164.11408 c -22.9543293,28.84507 -22.9543293,75.65415 0,104.49922 L 130.5987,411.09358 c 22.95433,28.84507 60.20406,28.84507 83.15839,0 L 327.14004,268.6133 c 22.95433,-28.84507 22.95433,-75.65415 0,-104.49922 z M 152.57277,216.36369 a 19.605125,24.636364 0 1 1 39.21025,0 19.605125,24.636364 0 1 1 -39.21025,0 z M 67.617247,191.72733 a 19.605122,24.63636 0 1 1 0,49.27272 19.605122,24.63636 0 1 1 0,-49.27272 z M 172.17789,372.39397 a 19.605122,24.63636 0 1 1 0,-49.27272 19.605122,24.63636 0 1 1 0,49.27272 z M 276.73854,191.72733 a 19.605122,24.63636 0 1 1 0,49.27272 19.605122,24.63636 0 1 1 0,-49.27272 z M 172.17789,109.60614 a 19.605123,24.636362 0 1 1 0,-49.272723 19.605123,24.636362 0 1 1 0,49.272723 z m 78.42049,336.6969 C 250.59838,482.53902 274.04284,512 302.8787,512 H 459.71968 C 488.55554,512 512,482.53902 512,446.30304 V 249.21217 c 0,-36.23598 -23.44446,-65.69696 -52.28032,-65.69696 h -93.36939 c 9.4758,36.95454 2.53232,79.04165 -20.74876,108.29733 L 250.59838,411.19623 Z M 381.29919,323.12125 a 19.605122,24.63636 0 1 1 0,49.27272 19.605122,24.63636 0 1 1 0,-49.27272 z"
     id="path291"
     style="stroke-width:0.915718" />
</svg>
