<?xml version="1.0" encoding="UTF-8" standalone="no"?>
<svg
   viewBox="0 0 512 512"
   version="1.1"
   id="svg422"
   sodipodi:docname="eye-slash-solid.svg"
   width="512"
   height="512"
   inkscape:version="1.2 (dc2aedaf03, 2022-05-15)"
   xmlns:inkscape="http://www.inkscape.org/namespaces/inkscape"
   xmlns:sodipodi="http://sodipodi.sourceforge.net/DTD/sodipodi-0.dtd"
   xmlns="http://www.w3.org/2000/svg"
   xmlns:svg="http://www.w3.org/2000/svg">
  <defs
     id="defs426" />
  <sodipodi:namedview
     id="namedview424"
     pagecolor="#ffffff"
     bordercolor="#000000"
     borderopacity="0.25"
     inkscape:showpageshadow="2"
     inkscape:pageopacity="0.0"
     inkscape:pagecheckerboard="0"
     inkscape:deskcolor="#d1d1d1"
     showgrid="false"
     inkscape:zoom="0.85253906"
     inkscape:cx="398.22222"
     inkscape:cy="199.40435"
     inkscape:window-width="1920"
     inkscape:window-height="1027"
     inkscape:window-x="-8"
     inkscape:window-y="-8"
     inkscape:window-maximized="1"
     inkscape:current-layer="svg422" />
  <!--! Font Awesome Pro 6.4.0 by @fontawesome - https://fontawesome.com License - https://fontawesome.com/license (Commercial License) Copyright 2023 Fonticons, Inc. -->
  <path
     d="M 31.043951,5.105509 C 22.724098,-3.094311 10.64431,-1.1943527 4.084425,9.205419 -2.4754597,19.605191 -0.95548638,34.704859 7.3643674,42.904679 L 480.95605,506.89449 c 8.31985,8.19982 20.39964,6.29986 26.95952,-4.09991 6.55989,-10.39977 5.03992,-25.49944 -3.27994,-33.69926 l -84.15852,-82.39819 c 31.67944,-40.59911 53.11907,-86.09811 63.91888,-118.3974 2.63995,-7.89983 2.63995,-16.69963 0,-24.59946 C 472.4762,208.00105 447.43664,156.00219 409.99729,112.60315 372.39795,68.80411 320.63886,32.004918 256,32.004918 c -54.55904,0 -99.99824,26.299423 -135.43762,60.798665 z M 178.48136,149.50234 C 198.881,126.20285 226.16052,112.00316 256,112.00316 c 63.59888,0 115.19798,64.49858 115.19798,143.99684 0,24.89945 -5.03992,48.29894 -13.91976,68.69849 l -30.87946,-30.19934 c 6.71988,-19.29957 8.47985,-41.39909 3.83993,-63.29861 -8.87984,-41.49909 -38.23932,-69.39847 -70.87875,-71.09844 -4.63992,-0.19999 -7.35987,6.09987 -5.9199,11.69975 1.67997,6.39986 2.63996,13.19971 2.63996,20.29955 0,10.19978 -1.91997,19.79957 -5.27991,28.29938 L 178.56136,149.60234 Z M 298.39925,389.89706 C 285.27948,396.39692 270.95974,399.99684 256,399.99684 192.40112,399.99684 140.80202,335.49825 140.80202,256 c 0,-6.89985 0.4,-13.5997 1.11998,-20.19956 L 66.483329,161.50207 c -18.23968,29.69935 -31.279451,59.2987 -38.879317,82.1982 -2.639954,7.89983 -2.639954,16.69963 0,24.59946 11.919791,35.69922 36.959351,87.69807 74.398688,131.09712 37.59934,43.79904 89.35843,80.59823 153.9973,80.59823 38.23933,0 71.91874,-12.89972 100.95823,-32.49929 z"
     id="path420"
     style="stroke-width:0.894409" />
</svg>
