<?xml version="1.0" encoding="UTF-8" standalone="no"?>
<svg
   viewBox="0 0 512 512"
   version="1.1"
   id="svg1014"
   sodipodi:docname="floppy-disk-solid.svg"
   width="512"
   height="512"
   inkscape:version="1.2 (dc2aedaf03, 2022-05-15)"
   xmlns:inkscape="http://www.inkscape.org/namespaces/inkscape"
   xmlns:sodipodi="http://sodipodi.sourceforge.net/DTD/sodipodi-0.dtd"
   xmlns="http://www.w3.org/2000/svg"
   xmlns:svg="http://www.w3.org/2000/svg">
  <defs
     id="defs1018" />
  <sodipodi:namedview
     id="namedview1016"
     pagecolor="#ffffff"
     bordercolor="#000000"
     borderopacity="0.25"
     inkscape:showpageshadow="2"
     inkscape:pageopacity="0.0"
     inkscape:pagecheckerboard="0"
     inkscape:deskcolor="#d1d1d1"
     showgrid="false"
     inkscape:zoom="0.60283615"
     inkscape:cx="-108.65307"
     inkscape:cy="565.65951"
     inkscape:window-width="1920"
     inkscape:window-height="1027"
     inkscape:window-x="-8"
     inkscape:window-y="-8"
     inkscape:window-maximized="1"
     inkscape:current-layer="svg1014" />
  <!--! Font Awesome Pro 6.4.0 by @fontawesome - https://fontawesome.com License - https://fontawesome.com/license (Commercial License) Copyright 2023 Fonticons, Inc. -->
  <path
     d="M 73.142857,0 C 32.8,0 0,32.8 0,73.14286 V 438.85714 C 0,479.2 32.8,512 73.142857,512 H 438.85714 C 479.2,512 512,479.2 512,438.85714 V 161.48571 c 0,-19.42857 -7.65714,-38.05714 -21.37143,-51.77142 L 402.28571,21.371429 C 388.57143,7.657143 369.94286,0 350.51429,0 Z m 0,109.71429 c 0,-20.22858 16.342857,-36.57143 36.571433,-36.57143 h 219.42857 c 20.22857,0 36.57143,16.34285 36.57143,36.57143 v 73.14285 c 0,20.22857 -16.34286,36.57143 -36.57143,36.57143 H 109.71429 c -20.228576,0 -36.571433,-16.34286 -36.571433,-36.57143 z M 256,292.57143 a 73.142857,73.142857 0 1 1 0,146.28571 73.142857,73.142857 0 1 1 0,-146.28571 z"
     id="path1012"
     style="stroke-width:1.14285" />
</svg>
