<?xml version="1.0" encoding="UTF-8" standalone="no"?>
<svg
   viewBox="0 0 512 512"
   version="1.1"
   id="svg1663"
   sodipodi:docname="square-xmark-solid.svg"
   width="512"
   height="512"
   inkscape:version="1.2 (dc2aedaf03, 2022-05-15)"
   xmlns:inkscape="http://www.inkscape.org/namespaces/inkscape"
   xmlns:sodipodi="http://sodipodi.sourceforge.net/DTD/sodipodi-0.dtd"
   xmlns="http://www.w3.org/2000/svg"
   xmlns:svg="http://www.w3.org/2000/svg">
  <defs
     id="defs1667" />
  <sodipodi:namedview
     id="namedview1665"
     pagecolor="#ffffff"
     bordercolor="#000000"
     borderopacity="0.25"
     inkscape:showpageshadow="2"
     inkscape:pageopacity="0.0"
     inkscape:pagecheckerboard="0"
     inkscape:deskcolor="#d1d1d1"
     showgrid="false"
     inkscape:zoom="0.85253906"
     inkscape:cx="93.250859"
     inkscape:cy="107.91294"
     inkscape:window-width="1920"
     inkscape:window-height="1027"
     inkscape:window-x="-8"
     inkscape:window-y="-8"
     inkscape:window-maximized="1"
     inkscape:current-layer="svg1663" />
  <!--! Font Awesome Pro 6.4.0 by @fontawesome - https://fontawesome.com License - https://fontawesome.com/license (Commercial License) Copyright 2023 Fonticons, Inc. -->
  <path
     d="M 73.142857,0 C 32.8,0 0,32.8 0,73.14286 V 438.85714 C 0,479.2 32.8,512 73.142857,512 H 438.85714 C 479.2,512 512,479.2 512,438.85714 V 73.14286 C 512,32.8 479.2,0 438.85714,0 Z m 90.285713,163.42857 c 10.74286,-10.74286 28.11429,-10.74286 38.74286,0 L 255.88571,217.14286 309.6,163.42857 c 10.74286,-10.74286 28.11429,-10.74286 38.74286,0 10.62857,10.74286 10.74285,28.11429 0,38.74286 L 294.62857,255.88571 348.34286,309.6 c 10.74285,10.74286 10.74285,28.11429 0,38.74286 -10.74286,10.62857 -28.11429,10.74285 -38.74286,0 l -53.71429,-53.71429 -53.71428,53.71429 c -10.74286,10.74285 -28.11429,10.74285 -38.74286,0 C 152.8,337.6 152.68571,320.22857 163.42857,309.6 l 53.71429,-53.71429 -53.71429,-53.71428 c -10.74286,-10.74286 -10.74286,-28.11429 0,-38.74286 z"
     id="path1661"
     style="stroke-width:1.14285" />
</svg>
